# xmcd
#
# Track frame offsets: 
#        150
#        19118
#        52286
#        67747
#        92577
#        115754
#        132878
#        148051
#        185586
#        210108
#
# Disc length: 3237 seconds
#
# Revision: 0
# Processed by: cddbd v1.5.2PL0 Copyright (c) Steve Scherf et al.
# Submitted via: ExactAudioCopy v0.99pb5
#
DISCID=870ca30a
DTITLE=Brett Eugene Ralph - Brett Eugene Ralph's Kentucky Chrome Revue
DYEAR=2010
DGENRE=Bluegrass
TTITLE0=Kentucky Chrome
TTITLE1=Happened To Be
TTITLE2=I Cry Easy
TTITLE3=Charcoal Gray
TTITLE4=Your Face Is Going To Hell
TTITLE5=Blue Is All I'm Gonna Need
TTITLE6=Austin Is Where I Went To Dream
TTITLE7=Grandpa Was A Hobo
TTITLE8=Woman Always Do
TTITLE9=The Whole Of The Law
EXTD=
EXTT0=
EXTT1=
EXTT2=
EXTT3=
EXTT4=
EXTT5=
EXTT6=
EXTT7=
EXTT8=
EXTT9=
PLAYORDER=
